# xmcd
#
# Track frame offsets:
#	150
#	17759
#	49065
#	60405
#	73322
#	93714
#	136840
#	147772
#	161640
#	179116
#
# Disc length: 2764
#
# Revision: 1
# Processed by: cddbd v1.5.1PL0 Copyright (c) Steve Scherf et al.
# Submitted via: dBpowerAMP V4.0
# Normalized: r0:DSETVAR1,TDELIM( - ),TSWAP
#
DISCID=920aca0a
DTITLE=Various Artist - Essential Blues Grooves - Volume 2
DYEAR=2001
DGENRE=Blues
TTITLE0=T-Bone Walker with Muddy Waters - Come Baby
TTITLE1=Ray Charles - Come Rain or Come Shine
TTITLE2=Muddy Waters - Portney's Blues
TTITLE3=Muddy Waters - Hootchie Coochie Man
TTITLE4=Muddy Waters - Sail On
TTITLE5=Muddy Waters - Kansas City
TTITLE6=Joe Williams - Gee Baby Ain't I Good To You
TTITLE7=Joe Williams - Nobody Knows the Way I Feel This Morning
TTITLE8=Joe Turner - Cherry Red
TTITLE9=Joe Turner - Shake Rattle and Roll
EXTD=
EXTT0=
EXTT1=
EXTT2=
EXTT3=
EXTT4=
EXTT5=
EXTT6=
EXTT7=
EXTT8=
EXTT9=
PLAYORDER=
